<mxfile host="app.diagrams.net" modified="2021-06-01T11:02:51.384Z" agent="5.0 (X11; Linux x86_64) AppleWebKit/537.36 (KHTML, like Gecko) Chrome/90.0.4430.212 Safari/537.36" etag="DgPhkGnlx_1cNdjG8CHg" version="14.7.0" type="github">
  <diagram id="0z9OInUoIsjwiCYSzLzh" name="Page-1">
    <mxGraphModel dx="1350" dy="713" grid="1" gridSize="10" guides="1" tooltips="1" connect="1" arrows="1" fold="1" page="1" pageScale="1" pageWidth="827" pageHeight="1169" math="0" shadow="0">
      <root>
        <mxCell id="0" />
        <mxCell id="1" parent="0" />
        <mxCell id="Sr5-a0AxMapIKTd6vkjt-1" value="Admin" style="html=1;dashed=0;whitespace=wrap;" parent="1" vertex="1">
          <mxGeometry x="90" y="260" width="100" height="50" as="geometry" />
        </mxCell>
        <mxCell id="K5_5QDwG86Fpb8e4fh5C-1" value="Business&lt;br&gt;User" style="html=1;dashed=0;whitespace=wrap;" vertex="1" parent="1">
          <mxGeometry x="90" y="550" width="100" height="50" as="geometry" />
        </mxCell>
        <mxCell id="K5_5QDwG86Fpb8e4fh5C-15" value="" style="group" vertex="1" connectable="0" parent="1">
          <mxGeometry x="310" y="170" width="120" height="60" as="geometry" />
        </mxCell>
        <mxCell id="K5_5QDwG86Fpb8e4fh5C-12" value="" style="rounded=1;whiteSpace=wrap;html=1;" vertex="1" parent="K5_5QDwG86Fpb8e4fh5C-15">
          <mxGeometry width="120" height="60" as="geometry" />
        </mxCell>
        <mxCell id="K5_5QDwG86Fpb8e4fh5C-13" value="Onboard FPA" style="html=1;dashed=0;whitespace=wrap;shape=partialRectangle;right=0;" vertex="1" parent="K5_5QDwG86Fpb8e4fh5C-15">
          <mxGeometry y="15" width="120" height="30" as="geometry" />
        </mxCell>
        <mxCell id="K5_5QDwG86Fpb8e4fh5C-14" value="" style="endArrow=none;html=1;entryX=0.25;entryY=0;entryDx=0;entryDy=0;exitX=0.25;exitY=0;exitDx=0;exitDy=0;" edge="1" parent="K5_5QDwG86Fpb8e4fh5C-15" source="K5_5QDwG86Fpb8e4fh5C-13" target="K5_5QDwG86Fpb8e4fh5C-12">
          <mxGeometry width="50" height="50" relative="1" as="geometry">
            <mxPoint x="70" y="260" as="sourcePoint" />
            <mxPoint x="120" y="210" as="targetPoint" />
          </mxGeometry>
        </mxCell>
        <mxCell id="K5_5QDwG86Fpb8e4fh5C-97" value="&lt;font style=&quot;font-size: 10px&quot;&gt;1&lt;/font&gt;" style="text;html=1;strokeColor=none;fillColor=none;align=center;verticalAlign=middle;whiteSpace=wrap;rounded=0;" vertex="1" parent="K5_5QDwG86Fpb8e4fh5C-15">
          <mxGeometry x="4" y="-3" width="40" height="20" as="geometry" />
        </mxCell>
        <mxCell id="K5_5QDwG86Fpb8e4fh5C-17" value="" style="endArrow=classic;html=1;exitX=1;exitY=0;exitDx=0;exitDy=0;entryX=0;entryY=1;entryDx=0;entryDy=0;" edge="1" parent="1" source="Sr5-a0AxMapIKTd6vkjt-1" target="K5_5QDwG86Fpb8e4fh5C-12">
          <mxGeometry width="50" height="50" relative="1" as="geometry">
            <mxPoint x="470" y="260" as="sourcePoint" />
            <mxPoint x="520" y="210" as="targetPoint" />
          </mxGeometry>
        </mxCell>
        <mxCell id="K5_5QDwG86Fpb8e4fh5C-18" value="POST Attributes/States" style="text;html=1;strokeColor=none;fillColor=none;align=center;verticalAlign=middle;whiteSpace=wrap;rounded=0;" vertex="1" parent="1">
          <mxGeometry x="210" y="210" width="40" height="20" as="geometry" />
        </mxCell>
        <mxCell id="K5_5QDwG86Fpb8e4fh5C-21" value="" style="group" vertex="1" connectable="0" parent="1">
          <mxGeometry x="640" y="330" width="100" height="30" as="geometry" />
        </mxCell>
        <mxCell id="K5_5QDwG86Fpb8e4fh5C-19" value="P" style="html=1;dashed=0;whitespace=wrap;shape=mxgraph.dfd.dataStoreID;align=left;spacingLeft=3;points=[[0,0],[0.5,0],[1,0],[0,0.5],[1,0.5],[0,1],[0.5,1],[1,1]];" vertex="1" parent="K5_5QDwG86Fpb8e4fh5C-21">
          <mxGeometry width="100" height="30" as="geometry" />
        </mxCell>
        <mxCell id="K5_5QDwG86Fpb8e4fh5C-20" value="Participant Type" style="text;html=1;strokeColor=none;fillColor=none;align=center;verticalAlign=middle;whiteSpace=wrap;rounded=0;" vertex="1" parent="K5_5QDwG86Fpb8e4fh5C-21">
          <mxGeometry x="40" y="5" width="40" height="20" as="geometry" />
        </mxCell>
        <mxCell id="K5_5QDwG86Fpb8e4fh5C-23" value="" style="endArrow=classic;html=1;entryX=0;entryY=0;entryDx=0;entryDy=0;exitX=1;exitY=1;exitDx=0;exitDy=0;" edge="1" parent="1" source="K5_5QDwG86Fpb8e4fh5C-12" target="K5_5QDwG86Fpb8e4fh5C-19">
          <mxGeometry width="50" height="50" relative="1" as="geometry">
            <mxPoint x="440" y="230" as="sourcePoint" />
            <mxPoint x="520" y="180" as="targetPoint" />
          </mxGeometry>
        </mxCell>
        <mxCell id="K5_5QDwG86Fpb8e4fh5C-24" value="Entity Attribute Details" style="text;html=1;strokeColor=none;fillColor=none;align=center;verticalAlign=middle;whiteSpace=wrap;rounded=0;" vertex="1" parent="1">
          <mxGeometry x="540" y="240" width="40" height="20" as="geometry" />
        </mxCell>
        <mxCell id="K5_5QDwG86Fpb8e4fh5C-27" value="" style="group" vertex="1" connectable="0" parent="1">
          <mxGeometry x="560" y="430" width="100" height="30" as="geometry" />
        </mxCell>
        <mxCell id="K5_5QDwG86Fpb8e4fh5C-28" value="P" style="html=1;dashed=0;whitespace=wrap;shape=mxgraph.dfd.dataStoreID;align=left;spacingLeft=3;points=[[0,0],[0.5,0],[1,0],[0,0.5],[1,0.5],[0,1],[0.5,1],[1,1]];" vertex="1" parent="K5_5QDwG86Fpb8e4fh5C-27">
          <mxGeometry width="100" height="30" as="geometry" />
        </mxCell>
        <mxCell id="K5_5QDwG86Fpb8e4fh5C-29" value="Property Participant" style="text;html=1;strokeColor=none;fillColor=none;align=center;verticalAlign=middle;whiteSpace=wrap;rounded=0;" vertex="1" parent="K5_5QDwG86Fpb8e4fh5C-27">
          <mxGeometry x="40" y="5" width="40" height="20" as="geometry" />
        </mxCell>
        <mxCell id="K5_5QDwG86Fpb8e4fh5C-31" value="" style="endArrow=classic;html=1;exitX=0.5;exitY=1;exitDx=0;exitDy=0;entryX=0.5;entryY=0;entryDx=0;entryDy=0;entryPerimeter=0;" edge="1" parent="1" source="K5_5QDwG86Fpb8e4fh5C-19" target="K5_5QDwG86Fpb8e4fh5C-28">
          <mxGeometry width="50" height="50" relative="1" as="geometry">
            <mxPoint x="590" y="350" as="sourcePoint" />
            <mxPoint x="640" y="300" as="targetPoint" />
          </mxGeometry>
        </mxCell>
        <mxCell id="K5_5QDwG86Fpb8e4fh5C-32" value="" style="group" vertex="1" connectable="0" parent="1">
          <mxGeometry x="710" y="430" width="100" height="30" as="geometry" />
        </mxCell>
        <mxCell id="K5_5QDwG86Fpb8e4fh5C-33" value="P" style="html=1;dashed=0;whitespace=wrap;shape=mxgraph.dfd.dataStoreID;align=left;spacingLeft=3;points=[[0,0],[0.5,0],[1,0],[0,0.5],[1,0.5],[0,1],[0.5,1],[1,1]];" vertex="1" parent="K5_5QDwG86Fpb8e4fh5C-32">
          <mxGeometry width="100" height="30" as="geometry" />
        </mxCell>
        <mxCell id="K5_5QDwG86Fpb8e4fh5C-34" value="Facility Participant" style="text;html=1;strokeColor=none;fillColor=none;align=center;verticalAlign=middle;whiteSpace=wrap;rounded=0;" vertex="1" parent="K5_5QDwG86Fpb8e4fh5C-32">
          <mxGeometry x="40" y="5" width="40" height="20" as="geometry" />
        </mxCell>
        <mxCell id="K5_5QDwG86Fpb8e4fh5C-35" value="" style="endArrow=classic;html=1;entryX=0.5;entryY=0;entryDx=0;entryDy=0;" edge="1" parent="1" target="K5_5QDwG86Fpb8e4fh5C-33">
          <mxGeometry width="50" height="50" relative="1" as="geometry">
            <mxPoint x="690" y="360" as="sourcePoint" />
            <mxPoint x="640" y="300" as="targetPoint" />
          </mxGeometry>
        </mxCell>
        <mxCell id="K5_5QDwG86Fpb8e4fh5C-36" value="Attributes" style="text;html=1;strokeColor=none;fillColor=none;align=center;verticalAlign=middle;whiteSpace=wrap;rounded=0;" vertex="1" parent="1">
          <mxGeometry x="670" y="380" width="40" height="20" as="geometry" />
        </mxCell>
        <mxCell id="K5_5QDwG86Fpb8e4fh5C-37" value="" style="group" vertex="1" connectable="0" parent="1">
          <mxGeometry x="310" y="300" width="120" height="60" as="geometry" />
        </mxCell>
        <mxCell id="K5_5QDwG86Fpb8e4fh5C-38" value="" style="rounded=1;whiteSpace=wrap;html=1;" vertex="1" parent="K5_5QDwG86Fpb8e4fh5C-37">
          <mxGeometry width="120" height="60" as="geometry" />
        </mxCell>
        <mxCell id="K5_5QDwG86Fpb8e4fh5C-39" value="Modify FPA" style="html=1;dashed=0;whitespace=wrap;shape=partialRectangle;right=0;" vertex="1" parent="K5_5QDwG86Fpb8e4fh5C-37">
          <mxGeometry y="15" width="120" height="30" as="geometry" />
        </mxCell>
        <mxCell id="K5_5QDwG86Fpb8e4fh5C-40" value="" style="endArrow=none;html=1;entryX=0.25;entryY=0;entryDx=0;entryDy=0;exitX=0.25;exitY=0;exitDx=0;exitDy=0;" edge="1" parent="K5_5QDwG86Fpb8e4fh5C-37" source="K5_5QDwG86Fpb8e4fh5C-39" target="K5_5QDwG86Fpb8e4fh5C-38">
          <mxGeometry width="50" height="50" relative="1" as="geometry">
            <mxPoint x="70" y="260" as="sourcePoint" />
            <mxPoint x="120" y="210" as="targetPoint" />
          </mxGeometry>
        </mxCell>
        <mxCell id="K5_5QDwG86Fpb8e4fh5C-104" value="&lt;font style=&quot;font-size: 10px&quot;&gt;2&lt;/font&gt;" style="text;html=1;strokeColor=none;fillColor=none;align=center;verticalAlign=middle;whiteSpace=wrap;rounded=0;" vertex="1" parent="K5_5QDwG86Fpb8e4fh5C-37">
          <mxGeometry x="4" y="-2" width="40" height="20" as="geometry" />
        </mxCell>
        <mxCell id="K5_5QDwG86Fpb8e4fh5C-42" value="" style="endArrow=classic;html=1;exitX=1;exitY=1;exitDx=0;exitDy=0;entryX=0;entryY=0.5;entryDx=0;entryDy=0;" edge="1" parent="1" source="Sr5-a0AxMapIKTd6vkjt-1" target="K5_5QDwG86Fpb8e4fh5C-39">
          <mxGeometry width="50" height="50" relative="1" as="geometry">
            <mxPoint x="470" y="230" as="sourcePoint" />
            <mxPoint x="520" y="180" as="targetPoint" />
          </mxGeometry>
        </mxCell>
        <mxCell id="K5_5QDwG86Fpb8e4fh5C-45" value="" style="endArrow=classic;html=1;exitX=1;exitY=0.5;exitDx=0;exitDy=0;entryX=0;entryY=0.5;entryDx=0;entryDy=0;" edge="1" parent="1" source="K5_5QDwG86Fpb8e4fh5C-39" target="K5_5QDwG86Fpb8e4fh5C-19">
          <mxGeometry width="50" height="50" relative="1" as="geometry">
            <mxPoint x="470" y="230" as="sourcePoint" />
            <mxPoint x="520" y="180" as="targetPoint" />
          </mxGeometry>
        </mxCell>
        <mxCell id="K5_5QDwG86Fpb8e4fh5C-47" value="PUT&lt;br&gt;Attributes/States" style="text;html=1;strokeColor=none;fillColor=none;align=center;verticalAlign=middle;whiteSpace=wrap;rounded=0;" vertex="1" parent="1">
          <mxGeometry x="220" y="310" width="50" height="20" as="geometry" />
        </mxCell>
        <mxCell id="K5_5QDwG86Fpb8e4fh5C-48" value="Attribute&lt;br&gt;/State&lt;br&gt;Details" style="text;html=1;strokeColor=none;fillColor=none;align=center;verticalAlign=middle;whiteSpace=wrap;rounded=0;" vertex="1" parent="1">
          <mxGeometry x="460" y="320" width="50" height="20" as="geometry" />
        </mxCell>
        <mxCell id="K5_5QDwG86Fpb8e4fh5C-50" value="" style="group" vertex="1" connectable="0" parent="1">
          <mxGeometry x="310" y="415" width="120" height="60" as="geometry" />
        </mxCell>
        <mxCell id="K5_5QDwG86Fpb8e4fh5C-51" value="" style="rounded=1;whiteSpace=wrap;html=1;" vertex="1" parent="K5_5QDwG86Fpb8e4fh5C-50">
          <mxGeometry width="120" height="60" as="geometry" />
        </mxCell>
        <mxCell id="K5_5QDwG86Fpb8e4fh5C-52" value="Add Property" style="html=1;dashed=0;whitespace=wrap;shape=partialRectangle;right=0;" vertex="1" parent="K5_5QDwG86Fpb8e4fh5C-50">
          <mxGeometry y="15" width="120" height="30" as="geometry" />
        </mxCell>
        <mxCell id="K5_5QDwG86Fpb8e4fh5C-53" value="" style="endArrow=none;html=1;entryX=0.25;entryY=0;entryDx=0;entryDy=0;exitX=0.25;exitY=0;exitDx=0;exitDy=0;" edge="1" parent="K5_5QDwG86Fpb8e4fh5C-50" source="K5_5QDwG86Fpb8e4fh5C-52" target="K5_5QDwG86Fpb8e4fh5C-51">
          <mxGeometry width="50" height="50" relative="1" as="geometry">
            <mxPoint x="70" y="260" as="sourcePoint" />
            <mxPoint x="120" y="210" as="targetPoint" />
          </mxGeometry>
        </mxCell>
        <mxCell id="K5_5QDwG86Fpb8e4fh5C-105" value="&lt;font style=&quot;font-size: 10px&quot;&gt;3&lt;/font&gt;" style="text;html=1;strokeColor=none;fillColor=none;align=center;verticalAlign=middle;whiteSpace=wrap;rounded=0;" vertex="1" parent="K5_5QDwG86Fpb8e4fh5C-50">
          <mxGeometry x="4" y="-3" width="40" height="20" as="geometry" />
        </mxCell>
        <mxCell id="K5_5QDwG86Fpb8e4fh5C-54" value="" style="endArrow=classic;html=1;exitX=1;exitY=0;exitDx=0;exitDy=0;entryX=0;entryY=1;entryDx=0;entryDy=0;" edge="1" parent="1" source="K5_5QDwG86Fpb8e4fh5C-1" target="K5_5QDwG86Fpb8e4fh5C-51">
          <mxGeometry width="50" height="50" relative="1" as="geometry">
            <mxPoint x="470" y="410" as="sourcePoint" />
            <mxPoint x="520" y="360" as="targetPoint" />
          </mxGeometry>
        </mxCell>
        <mxCell id="K5_5QDwG86Fpb8e4fh5C-55" value="POST&lt;br&gt;Property&amp;nbsp;&lt;br&gt;Information" style="text;html=1;strokeColor=none;fillColor=none;align=center;verticalAlign=middle;whiteSpace=wrap;rounded=0;" vertex="1" parent="1">
          <mxGeometry x="220" y="490" width="40" height="20" as="geometry" />
        </mxCell>
        <mxCell id="K5_5QDwG86Fpb8e4fh5C-57" value="" style="endArrow=classic;html=1;exitX=1;exitY=0.5;exitDx=0;exitDy=0;entryX=0;entryY=0.5;entryDx=0;entryDy=0;" edge="1" parent="1" source="K5_5QDwG86Fpb8e4fh5C-52" target="K5_5QDwG86Fpb8e4fh5C-28">
          <mxGeometry width="50" height="50" relative="1" as="geometry">
            <mxPoint x="470" y="410" as="sourcePoint" />
            <mxPoint x="520" y="360" as="targetPoint" />
          </mxGeometry>
        </mxCell>
        <mxCell id="K5_5QDwG86Fpb8e4fh5C-58" value="Property&amp;nbsp;&lt;br&gt;Details" style="text;html=1;strokeColor=none;fillColor=none;align=center;verticalAlign=middle;whiteSpace=wrap;rounded=0;" vertex="1" parent="1">
          <mxGeometry x="472" y="435" width="40" height="20" as="geometry" />
        </mxCell>
        <mxCell id="K5_5QDwG86Fpb8e4fh5C-61" value="" style="group" vertex="1" connectable="0" parent="1">
          <mxGeometry x="310" y="510" width="120" height="60" as="geometry" />
        </mxCell>
        <mxCell id="K5_5QDwG86Fpb8e4fh5C-62" value="" style="rounded=1;whiteSpace=wrap;html=1;" vertex="1" parent="K5_5QDwG86Fpb8e4fh5C-61">
          <mxGeometry width="120" height="60" as="geometry" />
        </mxCell>
        <mxCell id="K5_5QDwG86Fpb8e4fh5C-63" value="Modify Property" style="html=1;dashed=0;whitespace=wrap;shape=partialRectangle;right=0;" vertex="1" parent="K5_5QDwG86Fpb8e4fh5C-61">
          <mxGeometry y="15" width="120" height="30" as="geometry" />
        </mxCell>
        <mxCell id="K5_5QDwG86Fpb8e4fh5C-64" value="" style="endArrow=none;html=1;entryX=0.25;entryY=0;entryDx=0;entryDy=0;exitX=0.25;exitY=0;exitDx=0;exitDy=0;" edge="1" parent="K5_5QDwG86Fpb8e4fh5C-61" source="K5_5QDwG86Fpb8e4fh5C-63" target="K5_5QDwG86Fpb8e4fh5C-62">
          <mxGeometry width="50" height="50" relative="1" as="geometry">
            <mxPoint x="70" y="260" as="sourcePoint" />
            <mxPoint x="120" y="210" as="targetPoint" />
          </mxGeometry>
        </mxCell>
        <mxCell id="K5_5QDwG86Fpb8e4fh5C-106" value="&lt;font style=&quot;font-size: 10px&quot;&gt;4&lt;/font&gt;" style="text;html=1;strokeColor=none;fillColor=none;align=center;verticalAlign=middle;whiteSpace=wrap;rounded=0;" vertex="1" parent="K5_5QDwG86Fpb8e4fh5C-61">
          <mxGeometry x="5" y="-3" width="40" height="20" as="geometry" />
        </mxCell>
        <mxCell id="K5_5QDwG86Fpb8e4fh5C-66" value="" style="endArrow=classic;html=1;exitX=1;exitY=0.25;exitDx=0;exitDy=0;entryX=0;entryY=0.25;entryDx=0;entryDy=0;" edge="1" parent="1" source="K5_5QDwG86Fpb8e4fh5C-1" target="K5_5QDwG86Fpb8e4fh5C-63">
          <mxGeometry width="50" height="50" relative="1" as="geometry">
            <mxPoint x="470" y="410" as="sourcePoint" />
            <mxPoint x="520" y="360" as="targetPoint" />
          </mxGeometry>
        </mxCell>
        <mxCell id="K5_5QDwG86Fpb8e4fh5C-67" value="PUT Property&amp;nbsp;&lt;br&gt;Information" style="text;html=1;strokeColor=none;fillColor=none;align=center;verticalAlign=middle;whiteSpace=wrap;rounded=0;" vertex="1" parent="1">
          <mxGeometry x="240" y="540" width="40" height="20" as="geometry" />
        </mxCell>
        <mxCell id="K5_5QDwG86Fpb8e4fh5C-72" value="" style="endArrow=classic;html=1;exitX=1;exitY=0;exitDx=0;exitDy=0;entryX=0;entryY=1;entryDx=0;entryDy=0;" edge="1" parent="1" source="K5_5QDwG86Fpb8e4fh5C-62" target="K5_5QDwG86Fpb8e4fh5C-28">
          <mxGeometry width="50" height="50" relative="1" as="geometry">
            <mxPoint x="470" y="410" as="sourcePoint" />
            <mxPoint x="520" y="360" as="targetPoint" />
          </mxGeometry>
        </mxCell>
        <mxCell id="K5_5QDwG86Fpb8e4fh5C-73" value="Property&amp;nbsp;&lt;br&gt;Details" style="text;html=1;strokeColor=none;fillColor=none;align=center;verticalAlign=middle;whiteSpace=wrap;rounded=0;" vertex="1" parent="1">
          <mxGeometry x="465" y="490" width="40" height="20" as="geometry" />
        </mxCell>
        <mxCell id="K5_5QDwG86Fpb8e4fh5C-75" value="" style="group" vertex="1" connectable="0" parent="1">
          <mxGeometry x="310" y="600" width="120" height="60" as="geometry" />
        </mxCell>
        <mxCell id="K5_5QDwG86Fpb8e4fh5C-76" value="" style="rounded=1;whiteSpace=wrap;html=1;" vertex="1" parent="K5_5QDwG86Fpb8e4fh5C-75">
          <mxGeometry width="120" height="60" as="geometry" />
        </mxCell>
        <mxCell id="K5_5QDwG86Fpb8e4fh5C-77" value="Add Facility" style="html=1;dashed=0;whitespace=wrap;shape=partialRectangle;right=0;" vertex="1" parent="K5_5QDwG86Fpb8e4fh5C-75">
          <mxGeometry y="15" width="120" height="30" as="geometry" />
        </mxCell>
        <mxCell id="K5_5QDwG86Fpb8e4fh5C-78" value="" style="endArrow=none;html=1;entryX=0.25;entryY=0;entryDx=0;entryDy=0;exitX=0.25;exitY=0;exitDx=0;exitDy=0;" edge="1" parent="K5_5QDwG86Fpb8e4fh5C-75" source="K5_5QDwG86Fpb8e4fh5C-77" target="K5_5QDwG86Fpb8e4fh5C-76">
          <mxGeometry width="50" height="50" relative="1" as="geometry">
            <mxPoint x="70" y="260" as="sourcePoint" />
            <mxPoint x="120" y="210" as="targetPoint" />
          </mxGeometry>
        </mxCell>
        <mxCell id="K5_5QDwG86Fpb8e4fh5C-107" value="&lt;font style=&quot;font-size: 10px&quot;&gt;5&lt;/font&gt;" style="text;html=1;strokeColor=none;fillColor=none;align=center;verticalAlign=middle;whiteSpace=wrap;rounded=0;" vertex="1" parent="K5_5QDwG86Fpb8e4fh5C-75">
          <mxGeometry x="5" y="-3" width="40" height="20" as="geometry" />
        </mxCell>
        <mxCell id="K5_5QDwG86Fpb8e4fh5C-79" value="" style="endArrow=classic;html=1;entryX=0;entryY=0.5;entryDx=0;entryDy=0;exitX=1;exitY=0;exitDx=0;exitDy=0;" edge="1" parent="1" source="K5_5QDwG86Fpb8e4fh5C-76" target="K5_5QDwG86Fpb8e4fh5C-33">
          <mxGeometry width="50" height="50" relative="1" as="geometry">
            <mxPoint x="420" y="610" as="sourcePoint" />
            <mxPoint x="520" y="360" as="targetPoint" />
          </mxGeometry>
        </mxCell>
        <mxCell id="K5_5QDwG86Fpb8e4fh5C-80" value="" style="group" vertex="1" connectable="0" parent="1">
          <mxGeometry x="310" y="690" width="120" height="60" as="geometry" />
        </mxCell>
        <mxCell id="K5_5QDwG86Fpb8e4fh5C-81" value="" style="rounded=1;whiteSpace=wrap;html=1;" vertex="1" parent="K5_5QDwG86Fpb8e4fh5C-80">
          <mxGeometry width="120" height="60" as="geometry" />
        </mxCell>
        <mxCell id="K5_5QDwG86Fpb8e4fh5C-82" value="Modify Facility" style="html=1;dashed=0;whitespace=wrap;shape=partialRectangle;right=0;" vertex="1" parent="K5_5QDwG86Fpb8e4fh5C-80">
          <mxGeometry y="15" width="120" height="30" as="geometry" />
        </mxCell>
        <mxCell id="K5_5QDwG86Fpb8e4fh5C-83" value="" style="endArrow=none;html=1;entryX=0.25;entryY=0;entryDx=0;entryDy=0;exitX=0.25;exitY=0;exitDx=0;exitDy=0;" edge="1" parent="K5_5QDwG86Fpb8e4fh5C-80" source="K5_5QDwG86Fpb8e4fh5C-82" target="K5_5QDwG86Fpb8e4fh5C-81">
          <mxGeometry width="50" height="50" relative="1" as="geometry">
            <mxPoint x="70" y="260" as="sourcePoint" />
            <mxPoint x="120" y="210" as="targetPoint" />
          </mxGeometry>
        </mxCell>
        <mxCell id="K5_5QDwG86Fpb8e4fh5C-108" value="&lt;font style=&quot;font-size: 10px&quot;&gt;6&lt;/font&gt;" style="text;html=1;strokeColor=none;fillColor=none;align=center;verticalAlign=middle;whiteSpace=wrap;rounded=0;" vertex="1" parent="K5_5QDwG86Fpb8e4fh5C-80">
          <mxGeometry x="4" y="-3" width="40" height="20" as="geometry" />
        </mxCell>
        <mxCell id="K5_5QDwG86Fpb8e4fh5C-85" value="" style="endArrow=classic;html=1;entryX=0;entryY=0.5;entryDx=0;entryDy=0;" edge="1" parent="1" target="K5_5QDwG86Fpb8e4fh5C-77">
          <mxGeometry width="50" height="50" relative="1" as="geometry">
            <mxPoint x="190" y="590" as="sourcePoint" />
            <mxPoint x="520" y="570" as="targetPoint" />
          </mxGeometry>
        </mxCell>
        <mxCell id="K5_5QDwG86Fpb8e4fh5C-86" value="" style="endArrow=classic;html=1;exitX=1;exitY=1;exitDx=0;exitDy=0;entryX=0;entryY=0.5;entryDx=0;entryDy=0;" edge="1" parent="1" source="K5_5QDwG86Fpb8e4fh5C-1" target="K5_5QDwG86Fpb8e4fh5C-81">
          <mxGeometry width="50" height="50" relative="1" as="geometry">
            <mxPoint x="470" y="620" as="sourcePoint" />
            <mxPoint x="520" y="570" as="targetPoint" />
          </mxGeometry>
        </mxCell>
        <mxCell id="K5_5QDwG86Fpb8e4fh5C-87" value="" style="endArrow=classic;html=1;exitX=1;exitY=0.5;exitDx=0;exitDy=0;entryX=0;entryY=1;entryDx=0;entryDy=0;" edge="1" parent="1" source="K5_5QDwG86Fpb8e4fh5C-82" target="K5_5QDwG86Fpb8e4fh5C-33">
          <mxGeometry width="50" height="50" relative="1" as="geometry">
            <mxPoint x="470" y="620" as="sourcePoint" />
            <mxPoint x="520" y="570" as="targetPoint" />
          </mxGeometry>
        </mxCell>
        <mxCell id="K5_5QDwG86Fpb8e4fh5C-88" value="POST Facility&amp;nbsp;&lt;br&gt;Information" style="text;html=1;strokeColor=none;fillColor=none;align=center;verticalAlign=middle;whiteSpace=wrap;rounded=0;" vertex="1" parent="1">
          <mxGeometry x="230" y="590" width="40" height="20" as="geometry" />
        </mxCell>
        <mxCell id="K5_5QDwG86Fpb8e4fh5C-89" value="PUT Facility&amp;nbsp;&lt;br&gt;Information" style="text;html=1;strokeColor=none;fillColor=none;align=center;verticalAlign=middle;whiteSpace=wrap;rounded=0;" vertex="1" parent="1">
          <mxGeometry x="230" y="650" width="40" height="20" as="geometry" />
        </mxCell>
        <mxCell id="K5_5QDwG86Fpb8e4fh5C-90" value="Facility&amp;nbsp;&lt;br&gt;Information" style="text;html=1;strokeColor=none;fillColor=none;align=center;verticalAlign=middle;whiteSpace=wrap;rounded=0;" vertex="1" parent="1">
          <mxGeometry x="505" y="530" width="40" height="20" as="geometry" />
        </mxCell>
        <mxCell id="K5_5QDwG86Fpb8e4fh5C-95" value="Facility&amp;nbsp;&lt;br&gt;Information" style="text;html=1;strokeColor=none;fillColor=none;align=center;verticalAlign=middle;whiteSpace=wrap;rounded=0;" vertex="1" parent="1">
          <mxGeometry x="540" y="585" width="40" height="20" as="geometry" />
        </mxCell>
      </root>
    </mxGraphModel>
  </diagram>
</mxfile>
